<?xml version="1.0" encoding="UTF-8" standalone="no"?>
<!-- Created with Inkscape (http://www.inkscape.org/) -->

<svg
   xmlns:dc="http://purl.org/dc/elements/1.1/"
   xmlns:cc="http://creativecommons.org/ns#"
   xmlns:rdf="http://www.w3.org/1999/02/22-rdf-syntax-ns#"
   xmlns:svg="http://www.w3.org/2000/svg"
   xmlns="http://www.w3.org/2000/svg"
   xmlns:sodipodi="http://sodipodi.sourceforge.net/DTD/sodipodi-0.dtd"
   xmlns:inkscape="http://www.inkscape.org/namespaces/inkscape"
   width="210mm"
   height="297mm"
   viewBox="0 0 210 297"
   version="1.1"
   id="svg8"
   inkscape:version="0.92.1 r15371"
   sodipodi:docname="jamc.svg">
  <defs
     id="defs2" />
  <sodipodi:namedview
     id="base"
     pagecolor="#ffffff"
     bordercolor="#666666"
     borderopacity="1.0"
     inkscape:pageopacity="0.0"
     inkscape:pageshadow="2"
     inkscape:zoom="0.35"
     inkscape:cx="400"
     inkscape:cy="560"
     inkscape:document-units="mm"
     inkscape:current-layer="layer1"
     showgrid="false"
     inkscape:window-width="1366"
     inkscape:window-height="705"
     inkscape:window-x="-8"
     inkscape:window-y="-8"
     inkscape:window-maximized="1" />
  <metadata
     id="metadata5">
    <rdf:RDF>
      <cc:Work
         rdf:about="">
        <dc:format>image/svg+xml</dc:format>
        <dc:type
           rdf:resource="http://purl.org/dc/dcmitype/StillImage" />
        <dc:title></dc:title>
      </cc:Work>
    </rdf:RDF>
  </metadata>
  <g
     inkscape:label="Capa 1"
     inkscape:groupmode="layer"
     id="layer1">
    <path
       style="fill:#000000;stroke-width:0.08466666"
       d="m 21.279534,37.620491 c -0.608674,-0.16698 -1.531032,-0.64956 -2.163006,-1.13169 -0.85026,-0.64867 -11.0033154,-10.874619 -11.4264964,-11.508539 -0.71142,-1.0657 -1.017494,-1.96139 -1.017494,-2.97759 0,-1.01676 0.306574,-1.91344 1.018035,-2.97759 0.424517,-0.63496 10.5790254,-10.8630996 11.4259554,-11.5088096 1.101466,-0.83977 2.202022,-1.25959 3.302,-1.25959 1.100235,0 2.201226,0.42008 3.302,1.25986 0.85026,0.64867 11.003314,10.8746196 11.426496,11.5085396 0.71142,1.0657 1.017494,1.96139 1.017494,2.97759 0,1.10024 -0.420078,2.20123 -1.259862,3.302 -0.648667,0.85026 -10.874621,11.003309 -11.50854,11.426499 -0.636965,0.42521 -1.305517,0.74136 -1.905596,0.90114 -0.547016,0.14564 -1.658661,0.1397 -2.210986,-0.0118 z m 3.213327,-3.6324 c 1.200858,-0.27231 2.309012,-1.026 2.766178,-1.88135 0.46409,-0.86832 0.451155,-0.54465 0.451155,-11.289399 v -9.94834 h -2.54 -2.539999 l -0.02021,9.906 -0.02021,9.905999 -0.17967,0.14817 c -0.101695,0.0839 -0.319953,0.14817 -0.50291,0.14817 -0.605282,0 -0.589334,0.0884 -0.589334,-3.26572 v -2.999619 h -2.290523 -2.290523 l 0.02569,3.323169 0.02569,3.32317 0.237771,0.48419 c 0.283043,0.5764 1.021229,1.27853 1.755778,1.67004 0.277807,0.14807 0.857307,0.36253 1.287778,0.47658 0.726365,0.19244 0.892313,0.2047 2.306673,0.17035 0.955782,-0.0232 1.744973,-0.0871 2.116666,-0.17141 z m 51.627828,0.0374 c -1.95566,-0.20586 -3.38354,-0.93787 -4.05097,-2.07675 -0.41635,-0.71046 -0.45987,-1.22252 -0.45987,-5.410999 v -3.85775 h 2.54 2.54 l 0.001,3.8735 c 6.8e-4,2.130419 0.0245,3.960749 0.0531,4.067389 0.11121,0.41517 0.85505,0.57367 1.24666,0.26563 l 0.22309,-0.17548 v -2.91486 -2.914849 h 2.3321 2.3321 l -0.0249,3.238499 -0.0249,3.2385 -0.25082,0.45283 c -0.49648,0.89633 -1.69267,1.67573 -3.13993,2.04588 -0.78402,0.20052 -2.287,0.27686 -3.31674,0.16846 z m -38.546828,-0.57322 c 0,-0.22204 0.190649,-1.48886 0.423665,-2.81516 0.233016,-1.32631 0.615038,-3.554459 0.848941,-4.951459 0.2339,-1.397 0.44633,-2.64477 0.47206,-2.77283 l 0.0468,-0.23284 h 2.33147 2.33147 l -0.055,0.5715 c -0.0302,0.31433 -0.0772,0.77153 -0.10429,1.016 l -0.0493,0.4445 h 0.7416 0.74159 l -0.0576,-0.6985 c -0.0317,-0.38417 -0.0801,-0.84137 -0.10766,-1.016 l -0.0501,-0.3175 h 2.32664 2.32664 l 0.0914,0.52917 c 0.0503,0.29104 0.397666,2.33892 0.771956,4.550829 0.37429,2.21192 0.75788,4.43859 0.85242,4.94817 0.0945,0.50957 0.17189,0.97686 0.17189,1.03842 0,0.0908 -0.47498,0.1077 -2.514336,0.0895 l -2.51433,-0.0224 -0.44403,-2.96333 c -0.24422,-1.62983 -0.44627,-2.97286 -0.449,-2.9845 -0.003,-0.0116 -0.52933,-0.0212 -1.17021,-0.0212 h -1.16524 l -0.40647,2.81517 c -0.22356,1.54834 -0.42383,2.90089 -0.44504,3.00566 l -0.0386,0.1905 h -2.45372 -2.453723 z m 14.901322,-5.18429 v -5.587999 h 1.98967 1.98967 v 5.587999 5.588 h -1.98967 -1.98967 z m 6.5663,3.19617 c -0.31973,-1.31551 -0.89944,-3.68723 -1.28824,-5.270499 -0.3888,-1.58327 -0.74062,-3.02096 -0.78182,-3.19488 l -0.0749,-0.31621 4.2983,6.8e-4 4.298296,6.7e-4 -0.11769,0.56957 c -0.0647,0.31326 -0.44419,2.09356 -0.84326,3.95623 -0.39906,1.862669 -0.85261,4.015309 -1.00789,4.783659 -0.15528,0.76835 -0.30868,1.50178 -0.34088,1.62984 l -0.0586,0.23283 h -1.751006 -1.75101 l -0.5813,-2.39183 z m 6.811036,-3.19617 v -5.587999 h 2.286 2.286 v 5.587999 5.588 h -2.286 -2.286 z M 39.560957,21.473482 c 0.0601,-0.26616 0.46916,-2.64753 1.14227,-6.64931 0.31554,-1.87595 0.59142,-3.42853 0.61306,-3.45017 0.0216,-0.0216 1.4861,-0.0394 3.25436,-0.0394 h 3.215 l 0.27771,1.5875 c 0.25587,1.46268 0.7171,4.16046 1.25926,7.36556 0.12009,0.7099 0.19845,1.31062 0.17414,1.33493 -0.0243,0.0243 -1.04887,0.034 -2.27681,0.0216 l -2.2326,-0.0226 -0.18816,-1.63903 c -0.25872,-2.25368 -0.29354,-2.25451 -0.49906,-0.012 -0.0747,0.81492 -0.13275,1.5293 -0.12903,1.5875 0.005,0.0823 -0.51206,0.10584 -2.32318,0.10584 h -2.32995 z m 12.914226,-4.9756 v -5.16323 h 3.2963 c 3.06662,0 3.29927,0.0103 3.33898,0.14817 0.0539,0.18713 1.09814,5.31688 1.64576,8.0847 l 0.41441,2.09454 -4.34772,-5e-4 -4.34773,-5.1e-4 v -5.16323 z m 9.312856,5.01645 c -2.5e-4,-0.0807 0.30576,-1.86791 0.68004,-3.97163 0.37428,-2.10372 0.76703,-4.35162 0.87278,-4.99533 l 0.19226,-1.17039 3.4457,-0.0221 3.4457,-0.0221 v 5.16469 5.16469 l -4.318,-6e-4 c -4.03885,-5e-4 -4.31803,-0.01 -4.31848,-0.14723 z m 9.84123,-3.46985 c 0.0292,-3.42832 0.0402,-3.64457 0.20861,-4.09415 0.41044,-1.09569 1.13847,-1.83647 2.22797,-2.267 1.1201,-0.44263 1.78813,-0.54568 3.513,-0.54191 1.28404,0.003 1.63065,0.0319 2.20133,0.18489 1.71078,0.45856 2.60917,1.24411 2.95893,2.5873 0.10351,0.39747 0.13141,1.00422 0.13141,2.8575 v 2.35287 h -2.32834 -2.32833 v -2.32228 c 0,-1.99734 -0.0186,-2.34089 -0.13292,-2.45521 -0.18108,-0.18108 -0.48751,-0.24736 -0.83887,-0.18144 -0.56192,0.10541 -0.55221,0.0358 -0.55221,3.96177 v 3.53716 h -2.54569 -2.54569 z"
       id="path3691"
       inkscape:connector-curvature="0" />
  </g>
</svg>
